<?xml version="1.0" standalone="no"?>
<!DOCTYPE svg PUBLIC "-//W3C//DTD SVG 20010904//EN"
 "http://www.w3.org/TR/2001/REC-SVG-20010904/DTD/svg10.dtd">
<svg version="1.0" xmlns="http://www.w3.org/2000/svg"
 width="1194.000000pt" height="1280.000000pt" viewBox="0 0 1194.000000 1280.000000"
 preserveAspectRatio="xMidYMid meet">
<g transform="translate(0.000000,1280.000000) scale(0.100000,-0.100000)"
fill="#000000" stroke="none">
<path d="M6220 12783 c-88 -58 -126 -117 -245 -383 -96 -213 -161 -322 -214
-357 -66 -44 -99 -48 -436 -48 -360 -1 -400 -7 -450 -67 -23 -27 -26 -39 -22
-75 7 -66 60 -136 208 -274 224 -207 313 -301 338 -353 39 -80 28 -149 -73
-448 -47 -139 -90 -282 -94 -317 -12 -83 1 -144 36 -172 24 -19 35 -21 105
-15 42 3 77 3 77 0 0 -35 -220 -483 -320 -654 -106 -179 -158 -247 -730 -958
-200 -250 -245 -312 -270 -378 -53 -142 8 -252 154 -279 21 -4 40 -14 43 -21
6 -15 -96 -210 -210 -404 -187 -315 -390 -593 -621 -852 l-69 -78 7 -52 c20
-151 122 -247 281 -267 36 -4 68 -10 71 -14 9 -9 -59 -157 -143 -312 -175
-325 -391 -597 -674 -851 -53 -46 -68 -67 -73 -96 -24 -135 124 -264 332 -290
56 -7 92 -16 92 -23 0 -31 -183 -351 -288 -505 -147 -213 -229 -306 -462 -524
-162 -151 -190 -182 -220 -241 -45 -88 -48 -161 -11 -214 31 -44 110 -79 192
-87 86 -7 109 -12 109 -24 0 -26 -259 -396 -406 -580 -215 -270 -523 -589
-757 -785 l-107 -90 0 -51 c0 -128 75 -238 192 -282 186 -70 393 -49 622 62
61 30 140 61 176 70 79 19 191 35 206 29 6 -2 15 -31 18 -64 8 -67 -2 -89 -39
-89 -44 0 -145 -60 -185 -111 -50 -63 -64 -108 -64 -194 0 -94 29 -159 101
-225 67 -62 136 -85 229 -77 240 19 362 299 215 493 -40 53 -141 114 -190 114
-40 0 -51 18 -51 79 0 85 1 85 122 78 237 -15 468 -102 663 -250 322 -243 703
-268 1294 -82 103 32 123 35 236 35 134 0 360 -32 383 -55 11 -10 12 -26 3
-80 -5 -37 -12 -69 -14 -72 -2 -2 -53 -12 -113 -23 -341 -59 -574 -134 -1104
-353 -882 -364 -1079 -421 -1715 -499 -150 -18 -809 -18 -960 0 -384 47 -700
114 -1060 228 -82 26 -157 47 -165 46 -27 -1 -108 -52 -139 -88 -30 -33 -30
-36 -15 -59 21 -32 104 -70 206 -95 124 -30 460 -86 653 -109 318 -39 884 -76
1017 -68 572 35 883 84 1223 194 141 45 220 77 436 173 339 151 635 266 924
357 311 98 762 200 785 177 13 -13 -34 -236 -57 -272 -11 -19 -20 -22 -42 -17
-44 9 -335 -13 -457 -35 -170 -30 -441 -120 -461 -153 -4 -7 0 -8 13 -3 55 22
296 76 410 92 155 22 510 25 649 6 228 -32 468 -96 595 -160 93 -46 93 -46
-125 -88 -198 -37 -433 -44 -524 -15 l-64 20 -44 -25 c-53 -32 -57 -38 -38
-57 62 -63 644 7 1096 132 392 108 518 131 724 131 144 0 276 -16 445 -55 62
-14 115 -23 117 -21 5 5 -142 62 -222 86 -99 30 -164 41 -277 47 -87 5 -108 9
-112 22 -11 40 -17 219 -8 225 6 4 68 -17 139 -45 564 -225 1082 -366 1579
-428 390 -50 519 -56 1114 -56 443 0 663 5 1020 23 613 30 989 62 1110 93 36
9 -9 9 -1190 -12 -655 -11 -1413 -1 -1645 21 -604 59 -1136 199 -1722 451
-104 45 -238 98 -299 118 -60 21 -115 41 -122 45 -8 5 -12 41 -12 111 l0 105
37 15 c73 31 209 66 300 77 151 19 362 -8 668 -87 230 -60 330 -77 449 -77
128 -1 189 12 347 74 117 45 175 76 468 247 128 74 266 130 329 134 l47 2 3
-47 c3 -45 1 -48 -25 -54 -150 -33 -245 -103 -302 -223 -23 -49 -26 -68 -26
-161 0 -93 3 -112 27 -162 34 -74 112 -152 186 -186 50 -24 69 -27 162 -27 93
0 112 3 162 27 156 73 247 246 218 410 -29 160 -161 296 -307 314 -71 10 -83
19 -83 62 0 64 4 66 132 59 130 -7 256 -37 519 -120 338 -107 476 -121 602
-59 92 46 122 90 122 181 0 53 -7 79 -33 135 -49 105 -89 153 -327 396 -284
290 -460 498 -663 784 -86 121 -86 120 -26 112 243 -32 397 -6 456 77 35 49
32 145 -7 216 -35 64 -51 81 -212 224 -226 199 -433 457 -613 762 -72 122
-251 476 -247 488 1 5 45 10 97 12 82 1 103 5 155 31 68 33 89 62 74 103 -15
38 -46 69 -234 226 -227 189 -334 307 -471 515 -95 145 -189 353 -267 588 -14
42 -1 52 64 52 65 0 197 36 241 65 21 14 45 36 54 50 22 33 21 92 -1 135 -10
19 -119 139 -244 265 -321 327 -506 558 -694 870 -89 148 -257 461 -257 480 0
6 12 22 26 36 31 29 66 96 85 164 22 80 17 257 -9 326 -22 54 -36 73 -228 291
-165 188 -316 385 -461 603 -150 224 -339 555 -326 568 3 4 27 7 53 7 35 0 52
5 68 23 58 62 57 158 -8 477 -55 271 -62 359 -31 425 24 54 123 144 256 234
273 185 365 267 385 341 13 47 2 78 -40 113 -57 49 -129 64 -515 107 -55 6
-131 18 -170 27 -175 39 -206 82 -315 448 -60 202 -109 326 -148 372 -21 24
-82 63 -97 62 -5 0 -21 -7 -35 -16z m103 -261 c45 -43 82 -125 138 -313 102
-340 114 -353 363 -384 381 -48 416 -56 466 -107 38 -38 40 -85 5 -144 -28
-47 -92 -100 -279 -230 -140 -96 -211 -159 -226 -199 -19 -50 -10 -155 30
-351 58 -285 52 -374 -25 -411 -31 -15 -42 -15 -83 -4 -65 17 -108 44 -295
184 -160 121 -241 167 -292 167 -46 0 -130 -36 -271 -117 -246 -142 -320 -171
-388 -152 -55 15 -76 50 -76 128 0 55 12 100 75 286 41 121 77 245 81 275 11
99 -20 142 -257 356 -139 125 -198 200 -206 263 -7 53 14 86 75 114 44 21 62
22 317 23 177 0 284 4 311 12 59 17 108 76 166 201 169 358 190 394 249 424
43 22 85 15 122 -21z m-97 -1957 c32 -16 130 -82 216 -147 l157 -119 77 -147
c237 -451 501 -822 844 -1187 136 -145 166 -195 175 -295 8 -73 -11 -174 -45
-239 -27 -53 -100 -115 -190 -159 -72 -35 -79 -37 -180 -37 -94 0 -111 3 -164
27 -32 16 -80 44 -106 63 -174 128 -392 135 -782 24 -170 -48 -249 -34 -428
74 -125 76 -186 98 -295 104 -76 5 -105 2 -185 -20 -131 -35 -188 -62 -309
-150 -113 -81 -219 -125 -355 -148 -135 -23 -269 5 -310 63 -24 34 -20 106 10
166 14 28 80 115 147 194 439 514 631 749 711 868 132 198 218 363 371 710 92
209 79 194 259 291 209 111 266 121 382 64z m-715 -2199 c79 -17 118 -36 239
-116 117 -77 183 -101 290 -107 76 -4 98 -1 208 31 154 45 298 74 382 78 l65
3 0 -45 c0 -41 -2 -45 -30 -53 -129 -39 -179 -77 -226 -172 -29 -60 -31 -70
-27 -147 5 -95 26 -146 85 -204 116 -117 318 -117 431 -1 58 60 84 117 90 196
11 157 -90 293 -240 322 -65 13 -78 31 -58 83 10 28 11 28 70 22 115 -13 163
-34 313 -139 111 -78 251 -105 375 -73 35 9 69 16 76 16 7 0 39 -48 71 -107
228 -425 426 -689 806 -1078 171 -175 209 -219 214 -249 9 -46 -11 -78 -65
-106 -148 -76 -451 -63 -655 26 -218 96 -332 124 -510 124 -229 0 -445 -67
-625 -194 -134 -95 -273 -143 -441 -153 -276 -16 -629 89 -1024 307 -307 169
-398 202 -555 203 -159 0 -289 -50 -459 -178 -154 -116 -282 -165 -433 -165
-149 0 -250 60 -282 169 -9 30 -16 62 -16 71 0 10 28 48 61 86 276 311 587
771 718 1064 38 82 53 106 72 112 67 18 195 36 202 29 5 -5 7 -26 5 -47 -3
-36 -5 -38 -50 -50 -139 -35 -227 -140 -236 -279 -7 -124 51 -230 159 -290 49
-27 63 -30 144 -30 75 0 98 4 135 23 127 66 193 197 168 334 -13 71 -38 116
-93 167 -50 46 -95 69 -159 80 l-41 7 0 54 0 54 59 24 c66 26 116 58 223 143
88 70 152 102 279 139 112 33 186 37 285 16z m1291 -246 c52 -15 117 -67 150
-120 41 -66 52 -139 33 -213 -47 -183 -242 -270 -405 -181 -206 112 -192 407
24 505 46 21 140 25 198 9z m-2026 -239 c99 -44 171 -164 161 -272 -17 -198
-215 -319 -392 -240 -247 110 -213 463 50 532 43 11 132 1 181 -20z m108
-1197 c99 -25 184 -60 306 -127 l115 -63 8 -84 c8 -75 6 -86 -9 -97 -10 -7
-27 -13 -39 -13 -36 0 -122 -49 -160 -92 -57 -63 -79 -120 -79 -208 0 -95 28
-163 91 -221 66 -61 123 -83 213 -83 125 0 222 61 277 172 23 47 28 70 27 132
0 88 -22 145 -79 208 -39 44 -124 92 -163 92 -51 0 -62 16 -62 86 0 44 4 66
13 70 7 2 78 -27 158 -65 250 -121 500 -203 708 -232 50 -7 138 -10 220 -6
210 8 343 51 491 158 129 93 284 160 452 195 111 23 341 26 362 4 15 -16 27
-195 14 -216 -4 -6 -26 -14 -49 -18 -160 -26 -296 -181 -307 -351 -14 -228
154 -407 383 -407 107 0 177 27 253 97 125 116 161 269 101 430 -43 115 -174
218 -297 233 l-57 7 -3 106 c-2 80 1 108 10 112 23 8 153 -31 270 -82 63 -27
149 -59 193 -71 44 -12 87 -26 95 -29 8 -4 34 -57 58 -117 23 -60 59 -152 80
-204 77 -195 249 -454 411 -620 42 -42 130 -121 196 -175 152 -124 215 -185
215 -206 0 -25 -77 -59 -151 -65 -90 -9 -164 13 -349 101 -171 82 -213 94
-313 95 -80 0 -142 -25 -199 -82 -47 -47 -78 -109 -113 -223 -43 -146 -74
-187 -159 -215 -49 -16 -130 -3 -296 47 -154 46 -264 93 -657 276 -478 224
-584 253 -877 244 -199 -6 -274 -25 -441 -107 -153 -76 -197 -89 -320 -97
-168 -10 -356 25 -570 106 -182 69 -289 92 -460 98 -127 5 -167 2 -265 -16
-203 -38 -340 -86 -559 -194 -117 -58 -128 -61 -195 -61 -203 1 -376 140 -313
250 7 12 55 60 108 107 261 232 457 498 654 892 l91 180 44 13 c126 37 205 81
350 192 80 61 186 116 271 140 81 23 220 25 303 4z m539 -420 c57 -19 131 -83
160 -138 31 -58 31 -193 0 -251 -114 -213 -413 -204 -512 15 -44 97 -20 223
57 303 78 82 187 108 295 71z m2492 -48 c72 -33 126 -84 166 -158 32 -59 34
-69 34 -158 0 -87 -3 -100 -32 -156 -38 -72 -95 -127 -172 -163 -47 -22 -70
-26 -141 -26 -73 1 -93 5 -140 28 -146 74 -222 218 -198 373 20 132 122 243
257 281 63 18 161 9 226 -21z m-3376 -1181 c46 -9 133 -34 195 -57 314 -113
440 -141 636 -142 167 0 223 13 385 93 147 73 220 97 350 117 158 25 366 9
538 -41 51 -15 57 -19 62 -49 4 -17 5 -49 3 -71 -3 -37 -5 -39 -48 -50 -65
-17 -120 -48 -162 -92 -139 -144 -96 -392 85 -485 29 -15 66 -23 123 -26 72
-4 89 -1 136 20 75 34 122 79 155 146 39 79 40 193 3 267 -45 92 -161 175
-244 175 -27 0 -36 17 -36 68 0 50 12 66 41 57 29 -9 307 -136 524 -240 298
-143 489 -215 671 -255 159 -34 233 -24 302 43 44 42 62 78 105 214 41 127 69
176 124 222 100 83 224 75 425 -25 l87 -44 95 -192 c199 -405 375 -674 598
-915 86 -93 227 -228 299 -285 45 -36 99 -136 99 -182 0 -79 -71 -111 -240
-110 -175 1 -289 38 -602 195 -252 127 -434 181 -608 182 -200 1 -301 -40
-565 -228 -190 -135 -266 -182 -360 -220 -61 -26 -83 -29 -175 -30 l-105 0
-115 57 c-63 31 -182 95 -265 143 -82 47 -195 105 -250 129 -55 24 -159 71
-230 104 -414 192 -591 177 -1055 -93 -260 -151 -341 -185 -439 -185 -145 0
-264 55 -531 245 -281 200 -377 239 -580 238 -190 -1 -320 -44 -725 -236 -245
-117 -325 -140 -485 -141 -169 -1 -240 31 -240 110 0 52 54 146 112 195 326
272 581 600 814 1045 l74 141 103 45 c115 51 314 118 350 118 23 0 24 -4 30
-80 4 -44 4 -86 1 -94 -3 -7 -29 -18 -58 -25 -143 -32 -249 -183 -232 -330 13
-107 72 -193 168 -240 52 -27 72 -31 137 -31 128 1 218 56 273 167 59 120 39
254 -50 346 -51 53 -89 75 -158 90 l-59 14 -3 81 c-1 45 2 90 7 101 10 18 48
28 176 45 57 8 250 -3 334 -19z m2308 -251 c104 -49 160 -151 151 -273 -3 -36
-12 -81 -22 -98 -63 -124 -202 -186 -329 -149 -184 53 -264 268 -159 424 80
119 227 158 359 96z m-2722 -9 c65 -27 113 -73 145 -139 29 -58 32 -72 28
-133 -9 -158 -123 -267 -278 -267 -162 0 -280 120 -280 284 0 98 65 200 158
249 58 31 162 33 227 6z m-100 -1220 c110 -19 204 -69 420 -221 99 -69 212
-144 250 -167 152 -89 328 -125 452 -94 68 18 202 83 363 176 58 34 110 61
116 61 15 0 24 -81 12 -97 -5 -6 -31 -17 -58 -23 -174 -42 -273 -233 -210
-403 28 -75 79 -130 155 -168 60 -29 70 -31 147 -27 95 5 146 26 204 85 57 56
87 133 87 218 0 149 -96 265 -248 300 l-50 11 -3 58 c-2 37 2 63 10 74 7 8 50
32 94 53 285 132 454 126 788 -27 66 -31 177 -81 245 -111 68 -30 186 -90 263
-134 76 -44 201 -111 276 -147 136 -67 138 -67 233 -70 176 -7 303 45 565 229
232 164 276 190 291 177 19 -16 16 -66 -4 -76 -10 -5 -36 -13 -57 -17 -102
-18 -208 -105 -257 -209 -91 -195 -8 -422 189 -514 50 -24 70 -27 157 -27 88
0 107 3 157 27 80 37 152 107 191 187 30 61 32 73 32 166 -1 88 -4 107 -28
156 -57 118 -158 196 -288 221 -63 13 -64 14 -67 47 -7 66 2 78 76 102 42 13
105 23 168 26 202 11 360 -37 734 -221 l135 -66 87 -103 c86 -100 126 -151
200 -253 76 -108 249 -306 413 -474 94 -96 191 -200 217 -231 97 -114 157
-245 143 -310 -10 -45 -58 -93 -117 -119 -47 -20 -64 -22 -143 -17 -104 7
-142 16 -400 98 -248 79 -342 99 -500 106 -114 5 -140 3 -209 -16 -108 -30
-198 -73 -383 -184 -186 -112 -266 -153 -388 -200 -202 -79 -320 -76 -663 14
-213 55 -316 75 -473 90 -228 21 -366 -11 -718 -165 -223 -99 -263 -109 -426
-109 -161 0 -267 19 -586 108 -348 97 -398 106 -594 112 l-170 5 -145 -46
c-370 -118 -665 -136 -902 -55 -94 32 -143 60 -248 138 -150 112 -310 187
-500 233 -36 8 -119 13 -235 13 -165 0 -188 -3 -277 -27 -54 -15 -117 -37
-140 -49 -191 -97 -245 -113 -403 -113 -91 0 -120 4 -169 24 -109 42 -176 130
-176 229 0 44 -1 42 90 121 115 98 360 341 479 475 189 212 382 462 526 685
l63 96 97 32 c54 18 192 78 307 133 116 56 213 97 218 93 13 -15 19 -182 6
-192 -6 -5 -27 -12 -46 -16 -110 -19 -227 -114 -278 -224 -23 -49 -27 -70 -27
-152 0 -85 3 -102 31 -160 141 -298 556 -300 697 -2 29 61 32 76 32 162 0 82
-4 103 -27 153 -56 119 -175 210 -296 225 l-57 7 -3 106 c-2 79 1 109 11 117
23 20 200 74 282 87 106 17 164 17 260 0z m-409 -379 c71 -33 134 -93 170
-163 40 -79 46 -191 14 -275 -28 -75 -97 -151 -174 -191 -55 -28 -70 -31 -151
-31 -81 0 -96 3 -151 31 -77 40 -146 116 -174 191 -30 79 -25 196 10 266 51
101 143 175 242 196 64 13 154 3 214 -24z m4984 -18 c67 -30 133 -95 168 -163
34 -66 42 -189 18 -261 -33 -98 -118 -184 -218 -220 -24 -9 -75 -16 -115 -16
-128 0 -249 75 -309 194 -39 75 -45 190 -14 270 36 95 127 183 223 214 65 21
181 13 247 -18z m-2875 7 c136 -36 223 -155 212 -292 -15 -199 -227 -320 -404
-229 -99 51 -153 136 -152 246 0 36 6 82 13 103 30 81 105 149 194 173 62 17
68 17 137 -1z m3938 -1758 c71 -32 141 -102 175 -175 23 -48 27 -71 27 -142 0
-73 -4 -93 -28 -142 -52 -107 -142 -175 -261 -200 -127 -27 -275 42 -352 163
-27 43 -54 130 -54 175 0 146 109 293 251 340 66 21 173 13 242 -19z m-6938
-90 c95 -48 147 -130 153 -239 13 -230 -249 -373 -440 -239 -71 49 -118 137
-118 220 0 135 77 238 210 282 45 15 142 3 195 -24z m2847 -208 c359 -100 555
-129 736 -109 109 12 172 31 356 112 49 21 95 37 101 34 8 -3 14 -45 19 -128
3 -68 11 -208 18 -311 13 -206 13 -207 -44 -207 -25 0 -263 -58 -531 -130
l-119 -31 -61 40 c-164 107 -413 188 -676 220 -47 6 -89 15 -94 20 -4 4 1 43
12 87 25 97 48 229 61 348 11 91 15 106 30 106 5 0 91 -23 192 -51z"/>
<path d="M7621 6138 c-56 -29 -85 -68 -85 -113 0 -44 20 -65 71 -72 78 -10
163 56 163 127 0 71 -71 99 -149 58z m121 -15 c50 -45 -10 -134 -105 -157 -69
-16 -110 49 -70 111 38 57 134 83 175 46z"/>
<path d="M6711 4684 c0 -11 3 -14 6 -6 3 7 2 16 -1 19 -3 4 -6 -2 -5 -13z"/>
<path d="M6531 4634 c0 -11 3 -14 6 -6 3 7 2 16 -1 19 -3 4 -6 -2 -5 -13z"/>
<path d="M6552 4594 c10 -10 20 -16 22 -13 3 3 -5 11 -17 18 -21 13 -21 12 -5
-5z"/>
<path d="M3343 3109 c-18 -5 -49 -25 -68 -45 -57 -56 -46 -133 21 -150 45 -11
96 6 136 46 85 84 25 184 -89 149z m99 -26 c44 -39 3 -118 -77 -149 -38 -14
-49 -15 -75 -4 -86 36 -12 170 94 170 23 0 47 -7 58 -17z"/>
<path d="M8305 3086 c-75 -33 -111 -129 -65 -171 51 -46 175 -3 206 71 36 86
-43 143 -141 100z m121 -17 c8 -6 14 -25 14 -41 0 -82 -122 -148 -188 -102
-65 45 36 173 126 160 19 -3 40 -10 48 -17z"/>
<path d="M9375 1336 c-76 -34 -115 -119 -77 -166 42 -52 163 -23 206 51 51 87
-30 159 -129 115z m118 -28 c24 -29 15 -64 -29 -108 -31 -31 -39 -35 -91 -35
-50 0 -59 3 -69 24 -16 30 -3 69 35 105 51 49 119 55 154 14z"/>
<path d="M2591 1214 c0 -11 3 -14 6 -6 3 7 2 16 -1 19 -3 4 -6 -2 -5 -13z"/>
<path d="M2410 1153 c0 -6 8 -17 18 -24 16 -13 16 -13 2 6 -8 11 -16 22 -17
24 -2 2 -3 0 -3 -6z"/>
<path d="M2458 1113 c7 -3 16 -2 19 1 4 3 -2 6 -13 5 -11 0 -14 -3 -6 -6z"/>
</g>
</svg>
