<svg width="20" height="20" viewBox="0 0 20 20" fill="none" xmlns="http://www.w3.org/2000/svg">
<path d="M0 8.32312C0 12.9136 3.73464 16.6442 8.32105 16.6442C10.4341 16.6442 12.3669 15.8497 13.837 14.5475L19.14 19.8506C19.2383 19.9488 19.3653 19.998 19.4963 19.998C19.6274 19.998 19.7543 19.9488 19.8526 19.8506C20.0491 19.654 20.0491 19.3387 19.8526 19.1421L14.5455 13.8391C15.8477 12.369 16.6421 10.4402 16.6421 8.32312C16.6421 3.73262 12.9075 0.0020752 8.32105 0.0020752C3.73464 0.0020752 0 3.73262 0 8.32312ZM15.6388 8.32312C15.6388 12.3567 12.3546 15.6409 8.32105 15.6409C4.28747 15.6409 1.00328 12.3567 1.00328 8.32312C1.00328 4.28954 4.28747 1.00535 8.32105 1.00535C12.3546 1.00535 15.6388 4.28545 15.6388 8.32312Z" fill="#4E9B4D"/>
</svg>
